<svg height="512pt" viewBox="-77 0 512 512" width="512pt" xmlns="http://www.w3.org/2000/svg"><path d="m358.402344 503.597656-49.644532-409.058594c11.226563-3.539062 19.394532-14.046874 19.394532-26.429687v-40.40625c0-15.273437-12.429688-27.703125-27.703125-27.703125h-181.660157c-4.140624 0-7.5 3.359375-7.5 7.5s3.359376 7.5 7.5 7.5h181.660157c7.003906 0 12.703125 5.699219 12.703125 12.703125v40.40625c0 7.003906-5.699219 12.703125-12.703125 12.703125h-242.441407c-7.003906 0-12.703124-5.699219-12.703124-12.703125v-40.40625c0-7.003906 5.699218-12.703125 12.703124-12.703125h25.75c4.144532 0 7.5-3.359375 7.5-7.5s-3.355468-7.5-7.5-7.5h-25.75c-15.273437 0-27.703124 12.429688-27.703124 27.703125v40.40625c0 12.382813 8.164062 22.890625 19.394531 26.429687l-49.6445315 409.058594c-.2578125 2.128906.4062505 4.269532 1.8320315 5.875 1.425781 1.605469 3.46875 2.527344 5.613281 2.527344h40.40625c3.792969 0 6.988281-2.832031 7.445312-6.597656l10.027344-82.640625c.5-4.113281-2.429687-7.851563-6.542968-8.347657-4.113282-.492187-7.847657 2.429688-8.347657 6.539063l-9.226562 76.046875h-25.296875l48.6875-401.1875h229.152344l48.683593 401.1875h-25.292969l-43.582031-359.082031c-.457031-3.765625-3.652343-6.597657-7.445312-6.597657h-173.882813c-3.792968 0-6.988281 2.832032-7.445312 6.597657l-30.078125 247.855469c-.5 4.109374 2.429687 7.847656 6.542969 8.347656 4.113281.503906 7.847656-2.429688 8.347656-6.542969l4.636718-38.21875h77.234376v155.140625c0 4.140625 3.359374 7.5 7.5 7.5h40.40625c4.144531 0 7.5-3.359375 7.5-7.5v-155.140625h77.234374l18.941407 156.042969c.457031 3.765625 3.652343 6.597656 7.441406 6.597656h40.40625c2.148437 0 4.191406-.921875 5.617187-2.527344 1.421876-1.605468 2.089844-3.746094 1.832032-5.875zm-191.878906-209.636718v-147.640626h25.40625v147.640626zm-67.59375-147.640626h52.59375v147.640626h-70.511719zm93 350.679688h-25.40625v-147.640625h25.40625zm-115.820313-162.640625 3.082031-25.398437h144.570313c4.140625 0 7.5-3.359376 7.5-7.5 0-4.144532-3.359375-7.5-7.5-7.5h-16.828125v-147.640626h52.59375l17.917968 147.640626h-18.71875c-4.140624 0-7.5 3.355468-7.5 7.5 0 4.140624 3.359376 7.5 7.5 7.5h20.535157l3.085937 25.398437zm0 0"/></svg>