<svg height="512" viewBox="0 0 60 60" width="512" xmlns="http://www.w3.org/2000/svg"><g id="033---Servant"><path id="Shape" d="m55.229 41.027-12.92-3.045-3.309-2.482v-3.942c2.2-2.281 2.265-4.257 2.168-7.046 1.481224-.7992673 2.6427629-2.083315 3.29-3.637.459-1.447.913-3.8.1-5.013.7210481-3.041174.5622008-6.22470823-.458-9.179-2.215-6.607-13.539-6.683-14.02-6.683-6.974 0-9.159 2.828-9.721 4.029-5.184.483-6.008 6.746-4.893 11.8-.844 1.211-.388 3.593.091 5.083.6520411 1.5368564 1.8072659 2.8063342 3.276 3.6-.1 2.832-.038 4.766 2.167 7.046v3.942l-3.309 2.482-12.934 3.048c-.194.049-4.757 1.278-4.757 8.97v8c0 1.1045695.8954305 2 2 2h56c1.1045695 0 2-.8954305 2-2v-8c0-7.692-4.563-8.921-4.771-8.973zm-14.659-1.85c-.405.511-.8.979-1.18 1.414-.4269899-.4446262-1.0415844-.6570556-1.652-.571l-1.392.2c.7742787-.8165039 1.4477615-1.7229863 2.006-2.7zm-14.311 6.2-4.268.575c0-4.994-.011-3.141-.011-3.95l4.283.613c-.3487702.8866852-.3501986 1.8723076-.004 2.76zm-3.259-9.595v-2.1c.346.449.649.887.929 1.3 2.336 3.436 3.132 3.018 7.631 3.018 3.039 0 3.795-2.182 5.44-4.316v2.1c-.351.74-1.937 3.773-4.74 4.923-1.3600596-.9399745-3.1599404-.9399745-4.52 0-2.803-1.152-4.389-4.185-4.74-4.925zm10.741 6.843 4.27-.575v3.95l-4.274-.613c.3492925-.8872765.3507211-1.8737155.004-2.762zm8.814-22.361c-.3081519.6860512-.763604 1.2958243-1.334 1.786.3132509-1.5870419.5445573-3.1891639.693-4.8.3084664-.1909358.6730676-.2703504 1.033-.225.0930168 1.0951278-.0404195 2.1976796-.392 3.239zm-25.094.042c-.3592157-1.0531433-.4974265-2.1690419-.406-3.278.3630124-.045714.7306835.0351666 1.041.229.1444813 1.6107935.3727908 3.2129652.684 4.8-.5626952-.4799323-1.0129913-1.0777098-1.319-1.751zm.909-5.1c-.3334937-.1177132-.6826546-.1851188-1.036-.2-.386-2.033-.583-5.608.771-7.588.5465502-.82586684 1.4511927-1.34492404 2.44-1.4.6651955-.06678113 1.2490699-.47152514 1.545-1.071.35-.692 1.961-2.947 7.99-2.947.1 0 10.361.061 12.122 5.319.8547731 2.47111861 1.0275011 5.1269832.5 7.688-.3449764.0093497-.6866732.069669-1.014.179-.967-4.341-2.922-5.676-3.161-5.824-2.761-1.685-11.386-1.4-14.61-1.192-.9399762.04571597-1.8311502.43211651-2.507 1.087-1.4838431 1.7046727-2.5275842 3.7468345-3.04 5.948zm2.454 9.625c.166-4.487-.516-3.685-.758-8.094.127-.648.893-4.194 2.759-6.068.3329724-.3084796.766308-.4860762 1.22-.5 2.372-.155 10.3-.546 13.447.913.251.2 1.815 1.573 2.454 5.64-.192 3.351-.806 4.334-.806 6.521 0 3.107.613 4.963-2.014 7.351-3.066 2.787-3.182 5.406-5.566 5.406-4.3 0-4.25.4-5.978-2.143-.7639755-1.1971633-1.6739684-2.2945967-2.709-3.267-2.189-1.99-2.127-3.653-2.049-5.76zm.824 12.684c.5568646.9763701 1.2282805 1.8827816 2 2.7l-1.4-.2c-.6079824-.0836286-1.2192329.1290449-1.644.572-.382-.434-.774-.9-1.18-1.414zm-13.658 20.485h-5.99v-8c0-6.042 3.124-7 3.229-7.027l2.761-.651zm2 0v-16.149l2.137-.5c.362 3.116 1.74 11.649 6.273 16.649zm19.01 0h-7.659c-5.4-4.119-6.913-14.147-7.25-17.115l3.484-.822c.734.906 1.387 1.738 2.425 2.812v3.075c-.006938.5371535.1999501 1.0550309.5750885 1.4395478.3751384.3845168.8877504.6041271 1.4249115.6104522.216 0-.466.086 5.639-.787.4082785.3000006.8702826.5189518 1.361.645zm-1-14c0-1.1045695.8954305-2 2-2s2 .8954305 2 2-.8954305 2-2 2-2-.8954305-2-2zm10.659 14h-7.659v-10.142c.4912147-.1265364.9535782-.3461761 1.362-.647l5.384.77c.5771073.0683406 1.1556483-.1155582 1.5873774-.504574.4317291-.3890159.6746886-.9453423.6666226-1.526426v-3.075c1.074-1.11 1.771-2 2.425-2.812l3.484.822c-.337 2.968-1.855 12.996-7.25 17.115zm11.351 0h-8.41c4.537-5 5.915-13.533 6.277-16.652l2.137.5zm7.99 0h-5.99v-15.677l2.747.647c.033.008 3.243.882 3.243 7.03z"/><circle id="Oval" cx="34" cy="51" r="1"/><circle id="Oval" cx="34" cy="55" r="1"/></g></svg>