<svg height="512pt" viewBox="0 0 512 512" width="512pt" xmlns="http://www.w3.org/2000/svg"><path d="m392.84375 331.476562h-56.898438l-17.984374-38.265624c37.851562-21.125 64.339843-60.597657 67.585937-106.386719 15.113281-1.003907 27.390625-12.550781 29.515625-27.339844 23.335938-16.671875 38.011719-44.058594 38.011719-72.039063 0-48.21875-39.226563-87.445312-87.445313-87.445312-16.71875 0-34.53125 5.6875-49.402344 15.503906-18.328124-9.757812-39.222656-15.300781-61.394531-15.300781-69.601562 0-126.695312 54.542969-130.808593 123.128906-16.597657 1.152344-29.75 15.011719-29.75 31.898438 0 16.898437 13.171874 30.765625 29.789062 31.902343 2.039062 31.867188 15.4375 61.527344 38.261719 84.277344 9.757812 9.722656 20.777343 17.710938 32.679687 23.832032l-17.125 36.234374h-58.925781c-65.589844 0-118.953125 53.363282-118.953125 118.953126v61.570312h511.800781v-61.570312c0-65.589844-53.363281-118.953126-118.957031-118.953126zm-65.648438 58.929688-31.984374-9.195312 23.496093-13.164063zm-131.980468-22.207031 22.917968 13.003906-31.308593 9.101563zm170.414062-338.167969c31.65625 0 57.410156 25.757812 57.410156 57.414062 0 15.90625-7.332031 31.589844-19.402343 42.71875-4.980469-4.078124-11.210938-6.675781-18.015625-7.144531-2.171875-34.800781-17.976563-65.960937-42.132813-88.183593 7.28125-3.074219 14.980469-4.804688 22.140625-4.804688zm-110.796875.207031c26.824219 0 51.238281 10.511719 69.34375 27.628907-29.433593 38.832031-75.042969 61.699218-124.21875 61.699218-15.214843 0-30.136719-2.171875-44.511719-6.449218 8.574219-47.078126 49.875-82.878907 99.386719-82.878907zm-101.019531 148.339844v-34.75c14.996094 3.832031 30.445312 5.769531 46.144531 5.769531 55.964844 0 108.050781-24.824218 143.195313-67.328125 8.085937 14.519531 12.699218 31.222657 12.699218 48.988281v46.0625c0 56.203126-45.15625 102.085938-100.660156 102.277344-.121094 0-.242187 0-.363281 0-26.917969 0-52.230469-10.453125-71.304687-29.460937-19.160157-19.097657-29.710938-44.507813-29.710938-71.558594zm101.015625 131.054687h.464844c12.082031-.042968 23.78125-1.753906 34.894531-4.90625l16.695312 35.523438-50.363281 28.207031-49.597656-28.144531 16.304687-34.496094c10.214844 2.515625 20.808594 3.816406 31.601563 3.816406zm-224.792969 140.796876c0-49.03125 39.890625-88.917969 88.917969-88.917969h46.675781l-28.257812 74.445312 104.085937-30.257812v76.265625h-211.421875zm451.730469 31.535156h-210.273437v-76.324219l105.078124 30.214844-28.21875-74.347657h44.492188c49.03125 0 88.921875 39.890626 88.921875 88.921876zm0 0"/><path d="m390.394531 427.988281h53.417969v30.035157h-53.417969zm0 0"/></svg>